<svg width="905" height="236" viewBox="0 0 905 236" fill="none" xmlns="http://www.w3.org/2000/svg">
<g clip-path="url(#clip0_184_524)">
<rect y="35" width="200" height="200" rx="40" fill="url(#paint0_linear_184_524)"/>
<g filter="url(#filter0_dd_184_524)">
<path d="M37 166.121V161.108C37 160.288 37.5014 159.55 38.2646 159.248L137 120.206V125.138C137 125.958 136.499 126.695 135.737 126.997L37 166.121ZM37 191.448V186.435C37 185.614 37.5014 184.877 38.2646 184.575L137 145.533V150.465C137 151.285 136.499 152.022 135.737 152.324L37 191.448ZM37 178.784V173.852C37 173.032 37.5007 172.295 38.2632 171.993L137 132.869V137.801C137 138.622 136.499 139.359 135.737 139.661L37 178.784Z" fill="url(#paint1_linear_184_524)" shape-rendering="crispEdges"/>
<path d="M37 153.458V148.525C37 147.705 37.5007 146.968 38.2632 146.666L76.436 131.54C78.1204 130.873 78.1203 128.489 76.4359 127.822L38.2634 112.7C37.5008 112.398 37 111.661 37 110.84V90.0997V70.9415C37 69.53 38.4228 68.5626 39.7354 69.0817L134.037 106.371C135.825 107.078 137 108.806 137 110.729V110.729C137 112.652 135.825 114.38 134.037 115.087L37 153.458Z" fill="url(#paint2_linear_184_524)" shape-rendering="crispEdges"/>
</g>
<g filter="url(#filter1_dd_184_524)">
<rect x="111" y="184" width="52" height="17" rx="2" fill="url(#paint3_linear_184_524)" shape-rendering="crispEdges"/>
</g>
</g>
<g filter="url(#filter2_dd_184_524)">
<path d="M815.198 187V77.909H827.485V94.6704H828.408C830.586 89.178 834.374 84.7509 839.772 81.3891C845.217 77.9801 851.372 76.2755 858.238 76.2755C859.28 76.2755 860.44 76.2992 861.718 76.3465C862.996 76.3939 864.062 76.4412 864.914 76.4886V89.3437C864.346 89.249 863.352 89.1069 861.931 88.9176C860.511 88.7282 858.972 88.6335 857.315 88.6335C851.633 88.6335 846.567 89.8409 842.116 92.2556C837.712 94.6231 834.232 97.9138 831.675 102.128C829.119 106.342 827.84 111.148 827.84 116.545V187H815.198Z" fill="#222326"/>
<path d="M734.339 189.486C727.757 189.486 721.744 188.207 716.299 185.651C710.854 183.046 706.522 179.306 703.302 174.429C700.082 169.505 698.472 163.539 698.472 156.531C698.472 151.134 699.49 146.588 701.526 142.895C703.562 139.202 706.451 136.171 710.191 133.804C713.932 131.437 718.359 129.566 723.472 128.193C728.586 126.82 734.22 125.755 740.376 124.997C746.484 124.24 751.645 123.577 755.859 123.009C760.12 122.44 763.363 121.541 765.589 120.31C767.814 119.079 768.927 117.09 768.927 114.344V111.787C768.927 104.353 766.701 98.5057 762.251 94.2443C757.847 89.9356 751.503 87.7812 743.217 87.7812C735.357 87.7812 728.941 89.5095 723.969 92.9659C719.045 96.4223 715.589 100.494 713.6 105.182L701.597 100.849C704.059 94.8835 707.469 90.125 711.825 86.5739C716.181 82.9754 721.058 80.3949 726.455 78.8324C731.853 77.2225 737.322 76.4176 742.862 76.4176C747.028 76.4176 751.361 76.9621 755.859 78.0511C760.404 79.1401 764.618 81.0341 768.501 83.7329C772.383 86.3845 775.532 90.1013 777.947 94.8835C780.361 99.6184 781.569 105.632 781.569 112.923V187H768.927V169.741H768.146C766.63 172.961 764.381 176.086 761.398 179.116C758.415 182.147 754.675 184.633 750.177 186.574C745.679 188.515 740.399 189.486 734.339 189.486ZM736.043 177.909C742.767 177.909 748.591 176.418 753.515 173.435C758.439 170.452 762.227 166.498 764.879 161.574C767.577 156.602 768.927 151.134 768.927 145.168V129.401C767.98 130.3 766.394 131.105 764.168 131.815C761.99 132.526 759.457 133.165 756.569 133.733C753.728 134.254 750.887 134.704 748.046 135.082C745.205 135.461 742.648 135.793 740.376 136.077C734.22 136.834 728.965 138.018 724.609 139.628C720.253 141.238 716.915 143.463 714.594 146.304C712.274 149.098 711.114 152.696 711.114 157.099C711.114 163.728 713.482 168.866 718.217 172.511C722.951 176.11 728.894 177.909 736.043 177.909Z" fill="#222326"/>
<path d="M631.764 189.273C621.584 189.273 612.777 186.905 605.344 182.17C597.91 177.388 592.157 170.783 588.085 162.355C584.061 153.88 582.048 144.126 582.048 133.094C582.048 122.109 584.061 112.355 588.085 103.832C592.157 95.2623 597.768 88.5625 604.918 83.7329C612.115 78.856 620.424 76.4176 629.847 76.4176C635.765 76.4176 641.471 77.5066 646.963 79.6846C652.456 81.8153 657.38 85.1061 661.736 89.5568C666.139 93.9602 669.619 99.5237 672.176 106.247C674.733 112.923 676.011 120.83 676.011 129.969V136.219H590.784V125.068H663.085C663.085 118.061 661.665 111.763 658.824 106.176C656.03 100.542 652.124 96.0909 647.105 92.8239C642.134 89.5568 636.381 87.9233 629.847 87.9233C622.934 87.9233 616.849 89.7699 611.594 93.4631C606.338 97.1562 602.219 102.033 599.236 108.094C596.3 114.154 594.809 120.783 594.761 127.98V134.656C594.761 143.321 596.253 150.897 599.236 157.384C602.266 163.823 606.551 168.818 612.091 172.369C617.631 175.92 624.188 177.696 631.764 177.696C636.925 177.696 641.447 176.891 645.33 175.281C649.26 173.671 652.55 171.517 655.202 168.818C657.901 166.072 659.937 163.065 661.31 159.798L673.313 163.705C671.655 168.297 668.933 172.535 665.145 176.418C661.404 180.3 656.717 183.425 651.082 185.793C645.495 188.113 639.056 189.273 631.764 189.273Z" fill="#222326"/>
<path d="M484.481 118.818V187H471.839V77.909H484.126V95.0255H485.262C487.819 89.4384 491.796 84.964 497.194 81.6022C502.639 78.1931 509.362 76.4886 517.364 76.4886C524.703 76.4886 531.143 78.0274 536.683 81.1051C542.27 84.1354 546.602 88.6098 549.68 94.5284C552.805 100.447 554.367 107.715 554.367 116.332V187H541.725V117.114C541.725 108.165 539.216 101.086 534.197 95.8778C529.225 90.6695 522.549 88.0653 514.168 88.0653C508.439 88.0653 503.349 89.2963 498.898 91.7585C494.448 94.2206 490.92 97.7717 488.316 102.412C485.759 107.005 484.481 112.473 484.481 118.818Z" fill="#222326"/>
<path d="M415.269 187V77.9091H442.329V187H415.269ZM428.906 62.8522C424.692 62.8522 421.069 61.4555 418.039 58.6619C415.056 55.821 413.565 52.4356 413.565 48.5056C413.565 44.5284 415.056 41.143 418.039 38.3494C421.069 35.5558 424.692 34.1591 428.906 34.1591C433.12 34.1591 436.718 35.5558 439.701 38.3494C442.731 41.143 444.246 44.5284 444.246 48.5056C444.246 52.4356 442.731 55.821 439.701 58.6619C436.718 61.4555 433.12 62.8522 428.906 62.8522Z" fill="#222326"/>
<path d="M349.066 41.5454H376.126V155.324C376.173 159.206 376.789 162 377.972 163.705C379.203 165.362 381.358 166.167 384.435 166.119C386.093 166.072 387.347 165.977 388.2 165.835C389.099 165.646 389.88 165.456 390.543 165.267L394.947 185.508C393.432 185.982 391.538 186.455 389.265 186.929C387.04 187.355 384.199 187.615 380.742 187.71C369.994 188.042 362.016 185.864 356.808 181.176C351.647 176.489 349.066 169.244 349.066 159.443V41.5454Z" fill="#222326"/>
<path d="M280.937 189.131C270 189.131 260.601 186.74 252.741 181.957C244.882 177.175 238.821 170.57 234.56 162.142C230.346 153.667 228.239 143.913 228.239 132.881C228.239 121.754 230.369 111.953 234.631 103.477C238.939 95.0018 245.024 88.3967 252.884 83.6619C260.743 78.8797 270.047 76.4886 280.795 76.4886C289.886 76.4886 297.888 78.1458 304.801 81.4602C311.714 84.7746 317.23 89.4384 321.349 95.4516C325.469 101.418 327.789 108.425 328.31 116.474H302.528C301.581 111.124 299.285 106.721 295.639 103.264C292.041 99.8077 287.235 98.0795 281.222 98.0795C276.108 98.0795 271.634 99.4526 267.798 102.199C264.01 104.898 261.051 108.828 258.92 113.989C256.79 119.102 255.724 125.258 255.724 132.454C255.724 139.746 256.766 145.996 258.849 151.204C260.98 156.365 263.939 160.343 267.727 163.136C271.562 165.883 276.061 167.256 281.222 167.256C284.915 167.256 288.229 166.545 291.165 165.125C294.1 163.704 296.539 161.621 298.48 158.875C300.469 156.129 301.818 152.814 302.528 148.932H328.31C327.741 156.792 325.469 163.752 321.491 169.812C317.514 175.873 312.093 180.608 305.227 184.017C298.362 187.426 290.265 189.131 280.937 189.131Z" fill="#222326"/>
</g>
<path fill-rule="evenodd" clip-rule="evenodd" d="M815.198 77.909V187H827.84V116.545C827.84 111.148 829.119 106.342 831.675 102.128C834.232 97.9138 837.712 94.623 842.116 92.2556C846.567 89.8409 851.633 88.6335 857.315 88.6335C858.965 88.6335 860.498 88.7274 861.914 88.9153C861.92 88.916 861.925 88.9168 861.931 88.9176C863.352 89.1069 864.346 89.249 864.914 89.3437V76.4886C864.062 76.4412 862.996 76.3939 861.718 76.3465C860.44 76.2992 859.28 76.2755 858.238 76.2755C851.372 76.2755 845.217 77.9801 839.772 81.3891C835.808 83.8578 832.713 86.9009 830.485 90.5186C829.679 91.8273 828.987 93.2113 828.408 94.6704H827.485V77.909H815.198ZM830.485 85.4194V77.909C830.485 76.2522 829.142 74.909 827.485 74.909H815.198C813.541 74.909 812.198 76.2522 812.198 77.909V187C812.198 188.657 813.541 190 815.198 190H827.84C829.497 190 830.84 188.657 830.84 187V116.545C830.84 111.643 831.995 107.385 834.24 103.684C836.515 99.9344 839.597 97.0157 843.536 94.898L843.546 94.8925C847.507 92.7439 852.07 91.6335 857.315 91.6335C858.859 91.6335 860.264 91.7218 861.535 91.8912C862.956 92.0808 863.906 92.2171 864.421 92.3029C865.291 92.4479 866.18 92.2028 866.853 91.6328C867.526 91.0628 867.914 90.2256 867.914 89.3437V76.4886C867.914 74.8964 866.67 73.5815 865.081 73.4932C864.203 73.4445 863.118 73.3963 861.829 73.3486C860.522 73.3002 859.324 73.2755 858.238 73.2755C850.852 73.2755 844.14 75.1166 838.186 78.8426C835.181 80.714 832.608 82.907 830.485 85.4194Z" fill="#F4F5F8"/>
<path fill-rule="evenodd" clip-rule="evenodd" d="M716.299 185.651C721.744 188.207 727.757 189.486 734.339 189.486C740.399 189.486 745.679 188.515 750.177 186.574C754.675 184.633 758.415 182.147 761.398 179.116C763.165 177.321 764.675 175.493 765.927 173.632C766.788 172.351 767.528 171.054 768.146 169.741H768.927V187H781.569V112.923C781.569 105.632 780.362 99.6184 777.947 94.8835C775.532 90.1013 772.383 86.3845 768.501 83.7329C764.618 81.0341 760.404 79.1401 755.859 78.0511C751.361 76.9621 747.028 76.4176 742.862 76.4176C737.322 76.4176 731.853 77.2225 726.455 78.8324C721.058 80.3949 716.181 82.9754 711.825 86.5739C708.158 89.563 705.162 93.4076 702.837 98.1076C702.4 98.9913 701.987 99.9052 701.597 100.849L713.6 105.182C715.589 100.494 719.045 96.4223 723.969 92.9659C728.941 89.5095 735.357 87.7812 743.217 87.7812C751.503 87.7812 757.847 89.9356 762.251 94.2443C766.701 98.5057 768.927 104.353 768.927 111.787V114.344C768.927 117.09 767.814 119.079 765.589 120.31C763.363 121.541 760.12 122.44 755.859 123.009C751.645 123.577 746.484 124.24 740.376 124.997C734.22 125.755 728.586 126.82 723.472 128.193C718.359 129.566 713.932 131.437 710.191 133.804C706.451 136.171 703.562 139.202 701.526 142.895C699.49 146.588 698.472 151.134 698.472 156.531C698.472 163.539 700.082 169.505 703.302 174.429C706.522 179.306 710.854 183.046 716.299 185.651ZM740.009 122.02C733.738 122.791 727.964 123.881 722.694 125.296C717.344 126.732 712.627 128.712 708.587 131.269C704.441 133.893 701.191 137.289 698.899 141.447C696.559 145.691 695.472 150.765 695.472 156.531C695.472 164.009 697.195 170.572 700.791 176.071L700.798 176.082C704.328 181.429 709.085 185.526 715.005 188.357L715.024 188.366C720.904 191.127 727.359 192.486 734.339 192.486C740.714 192.486 746.414 191.465 751.366 189.328C756.166 187.257 760.244 184.566 763.536 181.221C764.384 180.36 765.182 179.486 765.927 178.6V187C765.927 188.657 767.27 190 768.927 190H781.569C783.226 190 784.569 188.657 784.569 187V112.923C784.569 105.327 783.315 98.809 780.622 93.5259C778.013 88.3608 774.552 84.2344 770.2 81.2607C766.019 78.3565 761.467 76.3102 756.56 75.1343C751.857 73.9961 747.289 73.4176 742.862 73.4176C737.031 73.4176 731.277 74.2649 725.61 75.954C719.824 77.6304 714.588 80.4015 709.923 84.2531C705.13 88.1624 701.447 93.3501 698.824 99.705C698.512 100.462 698.522 101.314 698.854 102.063C699.185 102.812 699.808 103.393 700.579 103.671L712.582 108.004C714.08 108.544 715.74 107.82 716.362 106.353C718.094 102.272 721.141 98.6179 725.687 95.4256C730.025 92.4118 735.791 90.7812 743.217 90.7812C750.996 90.7812 756.481 92.7961 760.153 96.3886L760.176 96.4112C763.916 99.9923 765.927 104.99 765.927 111.787V114.344C765.927 115.309 765.734 115.967 765.474 116.43C765.222 116.881 764.819 117.307 764.137 117.685C762.388 118.652 759.573 119.487 755.462 120.035L755.458 120.035C751.258 120.602 746.11 121.263 740.009 122.02ZM753.515 173.435C748.591 176.418 742.767 177.909 736.043 177.909C728.894 177.909 722.951 176.11 718.217 172.511C713.482 168.866 711.114 163.728 711.114 157.099C711.114 152.696 712.274 149.098 714.594 146.304C716.915 143.463 720.253 141.238 724.609 139.628C728.965 138.018 734.22 136.834 740.376 136.077C742.648 135.793 745.205 135.461 748.046 135.082C750.887 134.704 753.728 134.254 756.569 133.733C759.457 133.165 761.99 132.526 764.168 131.815C764.807 131.611 765.393 131.4 765.927 131.18C767.252 130.635 768.252 130.042 768.927 129.401V145.168C768.927 151.134 767.577 156.602 764.879 161.574C762.227 166.498 758.439 170.452 753.515 173.435ZM765.927 134.389V145.168C765.927 150.662 764.689 155.634 762.242 160.143L762.237 160.152C759.847 164.59 756.441 168.155 751.961 170.869C747.579 173.523 742.312 174.909 736.043 174.909C729.418 174.909 724.154 173.252 720.041 170.13C716.135 167.12 714.114 162.911 714.114 157.099C714.114 153.242 715.119 150.368 716.902 148.221L716.918 148.202C718.821 145.872 721.663 143.915 725.649 142.442C729.729 140.934 734.745 139.792 740.742 139.054L740.748 139.054C743.03 138.768 745.596 138.436 748.443 138.056C751.332 137.671 754.221 137.213 757.11 136.684L757.148 136.677C760.12 136.092 762.772 135.426 765.09 134.67C765.373 134.58 765.652 134.486 765.927 134.389Z" fill="#F4F5F8"/>
<path fill-rule="evenodd" clip-rule="evenodd" d="M605.344 182.17C612.777 186.905 621.584 189.273 631.764 189.273C639.056 189.273 645.495 188.113 651.082 185.793C656.717 183.425 661.404 180.3 665.145 176.418C668.156 173.331 670.494 170.02 672.159 166.484C672.588 165.572 672.973 164.646 673.313 163.705L661.31 159.798C659.937 163.065 657.901 166.072 655.202 168.818C652.55 171.517 649.259 173.671 645.33 175.281C641.447 176.891 636.925 177.696 631.764 177.696C624.188 177.696 617.631 175.92 612.091 172.369C606.551 168.818 602.266 163.823 599.236 157.384C596.789 152.062 595.345 146.007 594.906 139.219C594.842 138.234 594.799 137.234 594.778 136.219H676.011V129.969C676.011 120.83 674.733 112.923 672.176 106.247C669.619 99.5237 666.139 93.9602 661.736 89.5568C657.38 85.106 652.456 81.8153 646.963 79.6846C641.471 77.5066 635.765 76.4176 629.847 76.4176C620.424 76.4176 612.115 78.856 604.918 83.7329C597.768 88.5625 592.157 95.2623 588.085 103.832C584.061 112.355 582.048 122.109 582.048 133.094C582.048 144.126 584.061 153.88 588.085 162.355C592.157 170.783 597.91 177.388 605.344 182.17ZM648.058 76.8916C642.216 74.5766 636.139 73.4176 629.847 73.4176C619.878 73.4176 610.972 76.0072 603.237 81.2482C595.6 86.4072 589.654 93.5408 585.376 102.545L585.372 102.551C581.13 111.536 579.048 121.739 579.048 133.094C579.048 144.493 581.129 154.7 585.375 163.642L585.384 163.66C589.682 172.555 595.795 179.594 603.721 184.693L603.732 184.701C611.718 189.788 621.104 192.273 631.764 192.273C639.372 192.273 646.214 191.062 652.233 188.563L652.245 188.558C658.201 186.056 663.24 182.716 667.298 178.507C671.349 174.354 674.317 169.759 676.134 164.723C676.41 163.959 676.364 163.116 676.007 162.386C675.651 161.657 675.013 161.103 674.241 160.852L662.238 156.946C660.755 156.463 659.149 157.198 658.544 158.636C657.33 161.523 655.518 164.217 653.062 166.715C650.729 169.09 647.792 171.031 644.192 172.505L644.181 172.51C640.735 173.939 636.618 174.696 631.764 174.696C624.674 174.696 618.697 173.04 613.71 169.844C608.688 166.624 604.766 162.084 601.956 156.118C599.711 151.232 598.346 145.613 597.912 139.219H676.011C677.668 139.219 679.011 137.876 679.011 136.219V129.969C679.011 120.561 677.697 112.273 674.978 105.174C672.296 98.1242 668.607 92.1892 663.868 87.4466C659.236 82.7166 653.963 79.184 648.058 76.8916ZM595.141 122.068C595.018 123.056 594.925 124.056 594.861 125.068H663.085C663.085 124.053 663.055 123.053 662.996 122.068C662.644 116.251 661.253 110.954 658.824 106.176C656.03 100.542 652.124 96.0909 647.105 92.8239C642.134 89.5568 636.381 87.9233 629.847 87.9233C622.934 87.9233 616.849 89.7699 611.594 93.4631C606.338 97.1562 602.219 102.033 599.236 108.094C597.122 112.457 595.757 117.115 595.141 122.068ZM601.931 109.41C604.704 103.781 608.499 99.3046 613.319 95.9176C618.03 92.6069 623.502 90.9233 629.847 90.9233C635.855 90.9233 641.023 92.4169 645.458 95.331L645.469 95.3381C650.015 98.2974 653.568 102.33 656.136 107.509L656.15 107.536C658.35 111.863 659.643 116.695 659.99 122.068H598.166C598.764 117.568 600.023 113.354 601.931 109.41Z" fill="#F4F5F8"/>
<path fill-rule="evenodd" clip-rule="evenodd" d="M484.481 118.818C484.481 112.473 485.759 107.005 488.316 102.412C490.92 97.7717 494.448 94.2206 498.898 91.7585C503.349 89.2963 508.439 88.0653 514.168 88.0653C522.549 88.0653 529.225 90.6694 534.197 95.8778C539.216 101.086 541.725 108.165 541.725 117.114V187H554.367V116.332C554.367 107.715 552.805 100.447 549.68 94.5284C546.602 88.6098 542.27 84.1354 536.683 81.1051C531.143 78.0274 524.703 76.4886 517.364 76.4886C509.362 76.4886 502.639 78.1931 497.194 81.6022C492.967 84.235 489.611 87.5503 487.126 91.548C486.438 92.6548 485.816 93.814 485.262 95.0255H484.126V77.909H471.839V187H484.481V118.818ZM487.126 86.4146V77.909C487.126 76.2522 485.783 74.909 484.126 74.909H471.839C470.182 74.909 468.839 76.2522 468.839 77.909V187C468.839 188.657 470.182 190 471.839 190H484.481C486.138 190 487.481 188.657 487.481 187V118.818C487.481 112.879 488.675 107.934 490.937 103.871C493.281 99.6984 496.414 96.5615 500.351 94.3836C504.303 92.1971 508.882 91.0653 514.168 91.0653C521.875 91.0653 527.715 93.432 532.027 97.9492L532.036 97.9595C536.396 102.483 538.725 108.747 538.725 117.114V187C538.725 188.657 540.068 190 541.725 190H554.367C556.024 190 557.367 188.657 557.367 187V116.332C557.367 107.366 555.743 99.5897 552.336 93.1345C548.999 86.7219 544.257 81.8038 538.126 78.4753C532.078 75.1183 525.126 73.4886 517.364 73.4886C508.939 73.4886 501.631 75.2855 495.605 79.0577C492.302 81.1152 489.471 83.5694 487.126 86.4146Z" fill="#F4F5F8"/>
<path fill-rule="evenodd" clip-rule="evenodd" d="M415.269 190C413.612 190 412.269 188.657 412.269 187V77.9091C412.269 76.2522 413.612 74.9091 415.269 74.9091H442.329C443.986 74.9091 445.329 76.2522 445.329 77.9091V187C445.329 188.657 443.986 190 442.329 190H415.269ZM416.006 60.8676C415.994 60.8566 415.982 60.8455 415.97 60.8343C412.425 57.4578 410.565 53.3 410.565 48.5056C410.565 43.6731 412.419 39.5028 415.988 36.1597L416.006 36.1437C419.604 32.8268 423.957 31.1591 428.906 31.1591C433.851 31.1591 438.187 32.8251 441.743 36.1515C445.359 39.4884 447.246 43.6604 447.246 48.5056C447.246 53.3164 445.349 57.4787 441.753 60.8505L441.752 60.8516C438.194 64.1834 433.855 65.8522 428.906 65.8522C423.957 65.8522 419.604 64.1845 416.006 60.8676ZM439.701 38.3494C436.718 35.5558 433.12 34.1591 428.906 34.1591C424.692 34.1591 421.069 35.5558 418.039 38.3494C415.056 41.143 413.565 44.5284 413.565 48.5056C413.565 52.4356 415.056 55.821 418.039 58.6619C421.069 61.4555 424.692 62.8522 428.906 62.8522C433.12 62.8522 436.718 61.4555 439.701 58.6619C442.731 55.821 444.246 52.4356 444.246 48.5056C444.246 44.5284 442.731 41.143 439.701 38.3494ZM415.269 187H442.329V77.9091H415.269V187Z" fill="#F4F5F8"/>
<path fill-rule="evenodd" clip-rule="evenodd" d="M349.066 41.5454V159.443C349.066 169.244 351.647 176.489 356.808 181.176C362.016 185.864 369.994 188.042 380.742 187.71C384.199 187.615 387.04 187.355 389.265 186.929C391.538 186.455 393.432 185.982 394.947 185.508L390.543 165.267C389.88 165.456 389.099 165.646 388.2 165.835C388.022 165.865 387.827 165.892 387.615 165.918C386.807 166.015 385.747 166.082 384.435 166.119C381.358 166.167 379.203 165.362 377.972 163.705C376.789 162 376.173 159.206 376.126 155.324V41.5454H349.066ZM379.126 155.306V41.5454C379.126 39.8886 377.783 38.5454 376.126 38.5454H349.066C347.409 38.5454 346.066 39.8886 346.066 41.5454V159.443C346.066 169.737 348.783 177.94 354.79 183.397L354.801 183.406C360.824 188.827 369.712 191.051 380.828 190.709C384.37 190.612 387.386 190.343 389.829 189.875C389.845 189.872 389.861 189.869 389.877 189.866C392.206 189.381 394.202 188.884 395.842 188.372C397.325 187.908 398.208 186.389 397.878 184.871L393.475 164.629C393.299 163.819 392.795 163.118 392.084 162.693C391.372 162.267 390.516 162.155 389.719 162.382C389.158 162.543 388.47 162.711 387.648 162.885C386.999 162.988 385.932 163.075 384.37 163.12C381.831 163.156 380.835 162.498 380.408 161.951C379.765 160.992 379.172 158.968 379.126 155.306Z" fill="#F4F5F8"/>
<path fill-rule="evenodd" clip-rule="evenodd" d="M252.741 181.957C260.601 186.74 270 189.131 280.937 189.131C290.265 189.131 298.362 187.426 305.227 184.017C312.093 180.608 317.514 175.873 321.491 169.812C324.955 164.534 327.126 158.574 328.004 151.932C328.134 150.947 328.236 149.947 328.31 148.932H302.528C301.818 152.814 300.469 156.129 298.48 158.875C296.539 161.621 294.1 163.704 291.165 165.125C288.229 166.545 284.915 167.256 281.222 167.256C276.061 167.256 271.562 165.883 267.727 163.136C263.939 160.343 260.98 156.365 258.849 151.204C256.766 145.996 255.724 139.746 255.724 132.454C255.724 125.258 256.79 119.102 258.92 113.989C261.051 108.828 264.01 104.898 267.798 102.199C271.634 99.4526 276.108 98.0795 281.222 98.0795C287.235 98.0795 292.041 99.8077 295.639 103.264C299.285 106.721 301.581 111.124 302.528 116.474H328.31C328.244 115.458 328.149 114.458 328.026 113.474C327.174 106.672 324.948 100.664 321.349 95.4516C317.23 89.4384 311.714 84.7746 304.801 81.4602C297.888 78.1458 289.886 76.4886 280.795 76.4886C270.047 76.4886 260.743 78.8797 252.884 83.6619C245.024 88.3967 238.939 95.0018 234.631 103.477C230.369 111.953 228.239 121.754 228.239 132.881C228.239 143.913 230.346 153.667 234.56 162.142C238.821 170.57 244.882 177.175 252.741 181.957ZM251.329 81.0961C259.732 75.9848 269.593 73.4886 280.795 73.4886C290.253 73.4886 298.712 75.2137 306.098 78.755C313.458 82.2838 319.389 87.2839 323.821 93.7518C328.281 100.213 330.752 107.754 331.303 116.281C331.357 117.108 331.066 117.921 330.498 118.526C329.931 119.131 329.139 119.474 328.31 119.474H302.528C301.073 119.474 299.828 118.43 299.574 116.997C298.73 112.225 296.716 108.419 293.575 105.441L293.561 105.428C290.632 102.615 286.629 101.079 281.222 101.079C276.679 101.079 272.827 102.288 269.545 104.638L269.539 104.642C266.295 106.953 263.652 110.388 261.693 115.133L261.69 115.142C259.749 119.799 258.724 125.541 258.724 132.454C258.724 139.466 259.727 145.312 261.629 150.075C263.586 154.809 266.231 158.3 269.491 160.709C272.765 163.048 276.633 164.256 281.222 164.256C284.522 164.256 287.381 163.623 289.858 162.424C292.322 161.232 294.372 159.489 296.03 157.143L296.05 157.115C297.737 154.787 298.935 151.906 299.577 148.392C299.838 146.967 301.08 145.932 302.528 145.932H328.31C329.143 145.932 329.939 146.278 330.506 146.888C331.074 147.498 331.362 148.317 331.302 149.148C330.7 157.472 328.282 164.934 324 171.458C319.713 177.99 313.875 183.072 306.561 186.704C299.201 190.359 290.629 192.131 280.937 192.131C269.555 192.131 259.594 189.638 251.182 184.52C242.831 179.439 236.389 172.409 231.882 163.496L231.873 163.478C227.421 154.524 225.239 144.3 225.239 132.881C225.239 121.366 227.445 111.09 231.95 102.13L231.956 102.118C236.509 93.1628 242.973 86.1315 251.329 81.0961Z" fill="#F4F5F8"/>
<defs>
<filter id="filter0_dd_184_524" x="-3" y="34.9396" width="180" height="202.508" filterUnits="userSpaceOnUse" color-interpolation-filters="sRGB">
<feFlood flood-opacity="0" result="BackgroundImageFix"/>
<feColorMatrix in="SourceAlpha" type="matrix" values="0 0 0 0 0 0 0 0 0 0 0 0 0 0 0 0 0 0 127 0" result="hardAlpha"/>
<feOffset dy="6"/>
<feGaussianBlur stdDeviation="20"/>
<feComposite in2="hardAlpha" operator="out"/>
<feColorMatrix type="matrix" values="0 0 0 0 0 0 0 0 0 0 0 0 0 0 0 0 0 0 0.15 0"/>
<feBlend mode="normal" in2="BackgroundImageFix" result="effect1_dropShadow_184_524"/>
<feColorMatrix in="SourceAlpha" type="matrix" values="0 0 0 0 0 0 0 0 0 0 0 0 0 0 0 0 0 0 127 0" result="hardAlpha"/>
<feOffset dy="4"/>
<feGaussianBlur stdDeviation="10"/>
<feComposite in2="hardAlpha" operator="out"/>
<feColorMatrix type="matrix" values="0 0 0 0 0 0 0 0 0 0 0 0 0 0 0 0 0 0 0.15 0"/>
<feBlend mode="normal" in2="effect1_dropShadow_184_524" result="effect2_dropShadow_184_524"/>
<feBlend mode="normal" in="SourceGraphic" in2="effect2_dropShadow_184_524" result="shape"/>
</filter>
<filter id="filter1_dd_184_524" x="71" y="150" width="132" height="97" filterUnits="userSpaceOnUse" color-interpolation-filters="sRGB">
<feFlood flood-opacity="0" result="BackgroundImageFix"/>
<feColorMatrix in="SourceAlpha" type="matrix" values="0 0 0 0 0 0 0 0 0 0 0 0 0 0 0 0 0 0 127 0" result="hardAlpha"/>
<feOffset dy="6"/>
<feGaussianBlur stdDeviation="20"/>
<feComposite in2="hardAlpha" operator="out"/>
<feColorMatrix type="matrix" values="0 0 0 0 0 0 0 0 0 0 0 0 0 0 0 0 0 0 0.15 0"/>
<feBlend mode="normal" in2="BackgroundImageFix" result="effect1_dropShadow_184_524"/>
<feColorMatrix in="SourceAlpha" type="matrix" values="0 0 0 0 0 0 0 0 0 0 0 0 0 0 0 0 0 0 127 0" result="hardAlpha"/>
<feOffset dy="4"/>
<feGaussianBlur stdDeviation="10"/>
<feComposite in2="hardAlpha" operator="out"/>
<feColorMatrix type="matrix" values="0 0 0 0 0 0 0 0 0 0 0 0 0 0 0 0 0 0 0.15 0"/>
<feBlend mode="normal" in2="effect1_dropShadow_184_524" result="effect2_dropShadow_184_524"/>
<feBlend mode="normal" in="SourceGraphic" in2="effect2_dropShadow_184_524" result="shape"/>
</filter>
<filter id="filter2_dd_184_524" x="188.239" y="0.159058" width="716.675" height="235.327" filterUnits="userSpaceOnUse" color-interpolation-filters="sRGB">
<feFlood flood-opacity="0" result="BackgroundImageFix"/>
<feColorMatrix in="SourceAlpha" type="matrix" values="0 0 0 0 0 0 0 0 0 0 0 0 0 0 0 0 0 0 127 0" result="hardAlpha"/>
<feOffset dy="6"/>
<feGaussianBlur stdDeviation="20"/>
<feComposite in2="hardAlpha" operator="out"/>
<feColorMatrix type="matrix" values="0 0 0 0 0 0 0 0 0 0 0 0 0 0 0 0 0 0 0.15 0"/>
<feBlend mode="normal" in2="BackgroundImageFix" result="effect1_dropShadow_184_524"/>
<feColorMatrix in="SourceAlpha" type="matrix" values="0 0 0 0 0 0 0 0 0 0 0 0 0 0 0 0 0 0 127 0" result="hardAlpha"/>
<feOffset dy="4"/>
<feGaussianBlur stdDeviation="10"/>
<feComposite in2="hardAlpha" operator="out"/>
<feColorMatrix type="matrix" values="0 0 0 0 0 0 0 0 0 0 0 0 0 0 0 0 0 0 0.15 0"/>
<feBlend mode="normal" in2="effect1_dropShadow_184_524" result="effect2_dropShadow_184_524"/>
<feBlend mode="normal" in="SourceGraphic" in2="effect2_dropShadow_184_524" result="shape"/>
</filter>
<linearGradient id="paint0_linear_184_524" x1="100" y1="35" x2="100" y2="235" gradientUnits="userSpaceOnUse">
<stop stop-color="#5C6BF1"/>
<stop offset="1" stop-color="#283188"/>
</linearGradient>
<linearGradient id="paint1_linear_184_524" x1="37" y1="68" x2="157.5" y2="116" gradientUnits="userSpaceOnUse">
<stop stop-color="white"/>
<stop offset="1" stop-color="white" stop-opacity="0.65"/>
</linearGradient>
<linearGradient id="paint2_linear_184_524" x1="37" y1="68" x2="157.5" y2="116" gradientUnits="userSpaceOnUse">
<stop stop-color="white"/>
<stop offset="1" stop-color="white" stop-opacity="0.65"/>
</linearGradient>
<linearGradient id="paint3_linear_184_524" x1="45" y1="114" x2="163" y2="160.5" gradientUnits="userSpaceOnUse">
<stop stop-color="white"/>
<stop offset="1" stop-color="white" stop-opacity="0.65"/>
</linearGradient>
<clipPath id="clip0_184_524">
<rect y="35" width="200" height="200" rx="40" fill="white"/>
</clipPath>
</defs>
</svg>
